
<svg width="22px" height="10px" viewBox="0 0 22 10" version="1.1" xmlns="http://www.w3.org/2000/svg" xmlns:xlink="http://www.w3.org/1999/xlink">
    <!-- Generator: Sketch 52.4 (67378) - http://www.bohemiancoding.com/sketch -->
    <title>Combined Shape</title>
    <desc>Created with Sketch.</desc>
    <g id="Page-1" stroke="none" stroke-width="1" fill="none" fill-rule="evenodd">
        <g id="Artboard" transform="translate(-8.000000, -14.000000)" fill="#9A9A9A" fill-rule="nonzero">
            <path d="M26.8282486,14 L28,14 C28,14 24.7272727,20 19,20 C13.2727273,20 10,14 10,14 L11.1717514,14 C11.2432217,14.1086112 11.3254733,14.2297432 11.4183347,14.3615465 C11.880467,15.0174762 12.4268571,15.6743386 13.0513904,16.2849933 C14.7978132,17.9926067 16.7897044,19 19,19 C21.2102956,19 23.2021868,17.9926067 24.9486096,16.2849933 C25.5731429,15.6743386 26.119533,15.0174762 26.5816653,14.3615465 C26.6745267,14.2297432 26.7567783,14.1086112 26.8282486,14 Z M26.8282486,14 L28,14 C28,14 24.7272727,20 19,20 C13.2727273,20 10,14 10,14 L11.1717514,14 C11.2432217,14.1086112 11.3254733,14.2297432 11.4183347,14.3615465 C11.880467,15.0174762 12.4268571,15.6743386 13.0513904,16.2849933 C14.7978132,17.9926067 16.7897044,19 19,19 C21.2102956,19 23.2021868,17.9926067 24.9486096,16.2849933 C25.5731429,15.6743386 26.119533,15.0174762 26.5816653,14.3615465 C26.6745267,14.2297432 26.7567783,14.1086112 26.8282486,14 Z M25.3517136,21.8002446 L24.4914221,22.310047 L22.1384842,18.3394643 L22.9987758,17.8296619 L25.3517136,21.8002446 Z M18.5,19.8 L19.5,19.8 L19.5,23.2 L18.5,23.2 L18.5,19.8 Z M12.6482864,21.8002446 L13.5085779,22.310047 L15.8615158,18.3394643 L15.0012242,17.8296619 L12.6482864,21.8002446 Z M12.310047,16.5085779 L11.8002446,15.6482864 L8.68995304,17.4914221 L9.19975543,18.3517136 L12.310047,16.5085779 Z M25.7928932,16.5 L26.5,15.7928932 L29.2071068,18.5 L28.5,19.2071068 L25.7928932,16.5 Z" id="Combined-Shape"></path>
        </g>
    </g>
</svg>