<svg xmlns="http://www.w3.org/2000/svg" width="19" height="12" viewBox="0 0 19 12">
    <path fill="#AFAFAF" fill-rule="evenodd" d="M9.517 8.5a2.5 2.5 0 1 1 0-5 2.5 2.5 0 0 1 0 5zm0-1a1.5 1.5 0 1 0 0-3.001 1.5 1.5 0 0 0 0 3.001zm.986 4.44H8.531C3.416 11.314.517 6 .517 6H1.69a13.983 13.983 0 0 0 1.879 2.285C5.315 9.993 7.308 11 9.518 11s4.201-1.007 5.948-2.715A13.983 13.983 0 0 0 17.346 6h1.171s-2.899 5.314-8.014 5.94zM18.517 6h-1.172a13.983 13.983 0 0 0-1.879-2.285C13.72 2.007 11.727 1 9.517 1S5.315 2.007 3.568 3.715A13.983 13.983 0 0 0 1.69 6H.517s3.273-6 9-6 9 6 9 6z"/>
</svg>