<svg width="15" height="16" viewBox="0 0 15 16" fill="none" xmlns="http://www.w3.org/2000/svg">
    <path fill-rule="evenodd" clip-rule="evenodd" d="M10.146 7.146L8 9.293V0.5C8 0.223858 7.77614 0 7.5 0C7.22386 0 7 0.223858 7 0.5V9.293L4.854 7.146C4.72753 7.01953 4.54319 6.97014 4.37043 7.01643C4.19766 7.06272 4.06272 7.19766 4.01643 7.37043C3.97013 7.54319 4.01953 7.72753 4.146 7.854L7.146 10.854C7.2398 10.948 7.36717 11.0009 7.5 11.0009C7.63283 11.0009 7.7602 10.948 7.854 10.854L10.854 7.854C11.0495 7.65849 11.0495 7.34151 10.854 7.146C10.6585 6.95049 10.3415 6.95049 10.146 7.146ZM0.5 11C0.223858 11 0 11.2239 0 11.5V13.5C0 15.066 0.927 16 2.5 16H12.5C14.073 16 15 15.066 15 13.5V11.5C15 11.2239 14.7761 11 14.5 11C14.2239 11 14 11.2239 14 11.5V13.5C14 14.516 13.52 15 12.5 15H2.5C1.48 15 1 14.516 1 13.5V11.5C1 11.2239 0.776142 11 0.5 11Z" fill="#208CFF"/>
</svg>
