<svg width="16px" height="20px" viewBox="0 0 16 20" version="1.1" xmlns="http://www.w3.org/2000/svg" xmlns:xlink="http://www.w3.org/1999/xlink">
    <!-- Generator: Sketch 51.3 (57544) - http://www.bohemiancoding.com/sketch -->
    <desc>Created with Sketch.</desc>
    <defs></defs>
    <g id="Page-1" stroke="none" stroke-width="1" fill="none" fill-rule="evenodd">
        <g id="ELK-Copy-37" transform="translate(-1080.000000, -20.000000)" fill="#000000" fill-rule="nonzero">
            <g id="Group" transform="translate(443.000000, 20.000000)">
                <g id="bell-w-notify" transform="translate(636.000000, 0.000000)">
                    <path d="M10,2.01 L10,2 C10,1.44771525 9.55228475,1 9,1 C8.44771525,1 8,1.44771525 8,2 L8,2.01 L10,2.01 Z M11,2.337 C13.483,3.207 15.222,5.653 15.222,8.382 L15.222,10.905 C15.222,11.365 15.408,11.808 15.74,12.134 L16.582,12.964 C16.85,13.227 17,13.584 17,13.957 L17,15.221 C17,15.651 16.646,16 16.209,16 L1.79,16 C1.5817241,16.0015967 1.3813731,15.9202511 1.2331604,15.7739145 C1.0849477,15.6275779 1.00105654,15.4282793 1,15.22 L1,13.956 C1,13.584 1.15,13.226 1.418,12.962 L2.26,12.133 C2.592,11.807 2.778,11.365 2.778,10.904 L2.778,8.124 C2.778,5.43 4.545,3.142 7,2.323 L7,2 C7,0.8954305 7.8954305,2.02906125e-16 9,0 C10.1045695,-2.02906125e-16 11,0.8954305 11,2 L11,2.337 Z M5.713,17.167 C5.64889017,16.9976813 5.68132007,16.8069333 5.79778368,16.6683146 C5.91424729,16.5296959 6.09654776,16.4648651 6.27438412,16.4988229 C6.45222048,16.5327808 6.5978067,16.6602216 6.655,16.832 C7.00371993,17.8291296 7.94365355,18.497705 9,18.5 C10.0566177,18.4978286 10.9969062,17.8292859 11.346,16.832 C11.4060206,16.6637279 11.551254,16.5402587 11.7269923,16.508102 C11.9027305,16.4759454 12.0822747,16.5399866 12.1979923,16.676102 C12.3137099,16.8122175 12.3480206,16.9997279 12.288,17.168 C11.7968421,18.5635004 10.4794097,19.4978837 9,19.5 C7.52086188,19.4977598 6.20378452,18.5633441 5.713,17.168 L5.713,17.167 Z M16,15 L16,13.957 C15.9991587,13.8513527 15.955923,13.7504694 15.88,13.677 L15.038,12.847 C14.5165867,12.3352819 14.2225763,11.6355662 14.222,10.905 L14.222,8.382 C14.222,5.508 11.968,3.085 9.162,3.002 C6.206,2.916 3.778,5.239 3.778,8.125 L3.778,10.905 C3.778,11.635 3.484,12.333 2.962,12.847 L2.119,13.677 C2.0434448,13.7506364 2.00057839,13.8514985 2,13.957 L2,15 L16,15 Z" id="Shape"></path>
                </g>
            </g>
        </g>
    </g>
</svg>