<svg width="14" height="14" viewBox="0 0 14 14" fill="none" xmlns="http://www.w3.org/2000/svg">
    <path opacity="0.5" fill-rule="evenodd" clip-rule="evenodd" d="M6.49981 5.78404L12.1358 0.148044C12.3335 -0.0496736 12.6541 -0.0496736 12.8518 0.148044C13.0495 0.345762 13.0495 0.666326 12.8518 0.864044L7.21581 6.50004L12.8518 12.136C13.0495 12.3338 13.0495 12.6543 12.8518 12.852C12.6541 13.0498 12.3335 13.0498 12.1358 12.852L6.49981 7.21604L0.863812 12.852C0.735911 12.9799 0.549491 13.0299 0.374775 12.9831C0.200058 12.9363 0.0635897 12.7998 0.0167746 12.6251C-0.0300404 12.4504 0.0199106 12.2639 0.147812 12.136L5.78381 6.50004L0.147812 0.864044C-0.0499062 0.666326 -0.0499062 0.345762 0.147812 0.148044C0.34553 -0.0496736 0.666094 -0.0496736 0.863812 0.148044L6.49981 5.78404Z" fill="black"/>
</svg>
