<svg width="19px" height="12px" viewBox="0 0 19 12" version="1.1" xmlns="http://www.w3.org/2000/svg" xmlns:xlink="http://www.w3.org/1999/xlink">
    <!-- Generator: Sketch 51.3 (57544) - http://www.bohemiancoding.com/sketch -->
    <desc>Created with Sketch.</desc>
    <defs></defs>
    <g id="Page-1" stroke="none" stroke-width="1" fill="none" fill-rule="evenodd">
        <g id="ELK-Copy-37" transform="translate(-809.000000, -454.000000)" fill="#007AFF">
            <g id="Group" transform="translate(443.000000, 20.000000)">
                <g id="Group-13" transform="translate(0.000000, 34.000000)">
                    <g id="Group-12">
                        <g id="Group-5">
                            <g id="eye-open" transform="translate(366.000000, 400.000000)">
                                <path d="M9.517,8.5 C8.13628813,8.5 7.017,7.38071187 7.017,6 C7.017,4.61928813 8.13628813,3.5 9.517,3.5 C10.8977119,3.5 12.017,4.61928813 12.017,6 C12.017,7.38071187 10.8977119,8.5 9.517,8.5 Z M9.517,7.5 C10.3457033,7.5 11.0175,6.82820327 11.0175,5.9995 C11.0175,5.17079673 10.3457033,4.499 9.517,4.499 C8.68829673,4.499 8.0165,5.17079673 8.0165,5.9995 C8.0165,6.82820327 8.68829673,7.5 9.517,7.5 Z M10.503,11.94 L8.531,11.94 C3.416,11.314 0.517,6 0.517,6 L1.69,6 C2.23377243,6.82596629 2.86362993,7.59191859 3.569,8.285 C5.315,9.993 7.308,11 9.518,11 C11.728,11 13.719,9.993 15.466,8.285 C16.1717192,7.59196924 16.8019134,6.82601508 17.346,6 L18.517,6 C18.517,6 15.618,11.314 10.503,11.94 Z M18.517,6 L17.345,6 C16.8012276,5.17403371 16.1713701,4.40808141 15.466,3.715 C13.72,2.007 11.727,1 9.517,1 C7.307,1 5.315,2.007 3.568,3.715 C2.862979,4.40813203 2.23345824,5.17408248 1.69,6 L0.517,6 C0.517,6 3.79,-8.8817842e-16 9.517,-8.8817842e-16 C15.244,-8.8817842e-16 18.517,6 18.517,6 Z" id="Shape"></path>
                            </g>
                        </g>
                    </g>
                </g>
            </g>
        </g>
    </g>
</svg>