<svg width="20" height="19" viewBox="0 0 20 19" fill="none" xmlns="http://www.w3.org/2000/svg">
    <rect x="0.5" y="4.5" width="14" height="14" rx="1.5" stroke="#007AFF"/>
    <rect x="8" y="2" width="9" height="9" rx="2" fill="white"/>
    <path fill-rule="evenodd" clip-rule="evenodd" d="M14.9599 3.53233L11.6209 3.53233C11.337 3.53468 11.1168 3.30667 11.1291 3.02304C11.1413 2.73941 11.3814 2.50758 11.6653 2.50523L16.2435 2.49569C16.3799 2.49439 16.5084 2.54736 16.6007 2.6429C16.6929 2.73845 16.7414 2.86873 16.7353 3.00498L16.7353 7.53813C16.7274 7.72161 16.6221 7.89195 16.4591 7.98501C16.2961 8.07806 16.1002 8.07969 15.9451 7.98927C15.79 7.89885 15.6994 7.73012 15.7073 7.54665L15.6545 4.25167L9.40722 10.5431C9.19808 10.745 8.87304 10.7477 8.68122 10.5491C8.48939 10.3504 8.50343 10.0257 8.71256 9.82373L14.9599 3.53233Z" fill="#007AFF"/>
</svg>
