<svg width="16px" height="17px" viewBox="0 0 16 17" version="1.1" xmlns="http://www.w3.org/2000/svg" xmlns:xlink="http://www.w3.org/1999/xlink">
    <!-- Generator: Sketch 51.3 (57544) - http://www.bohemiancoding.com/sketch -->
    <desc>Created with Sketch.</desc>
    <defs></defs>
    <g id="Page-1" stroke="none" stroke-width="1" fill="none" fill-rule="evenodd">
        <g id="ELK-Copy-37" transform="translate(-975.000000, -451.000000)" fill="#1E8AFF" fill-rule="nonzero" stroke="#FFFFFF">
            <g id="Group" transform="translate(443.000000, 20.000000)">
                <g id="Group-13" transform="translate(0.000000, 34.000000)">
                    <g id="Group-12">
                        <g id="Group-5">
                            <g id="cog-solid" transform="translate(540.000000, 405.500000) scale(-1, 1) translate(-540.000000, -405.500000) translate(533.000000, 398.000000)">
                                <path d="M12.5664294,8.56148929 L13.8229656,9.30540881 C13.9664695,9.39035819 14.0330763,9.56603316 13.9839247,9.72834122 C13.6575249,10.8062216 13.1002568,11.7800095 12.3714151,12.5887978 C12.2590743,12.7135304 12.0774893,12.7418339 11.9340924,12.656963 L10.6784997,11.9131644 C10.1502174,12.3774243 9.54286623,12.7375994 8.88701569,12.975561 L8.88701569,14.4629161 C8.88701811,14.6328307 8.77216647,14.7800392 8.61053408,14.8172902 C7.5798536,15.0546888 6.47289521,15.066967 5.39020304,14.8175019 C5.22832995,14.7802137 5.11295483,14.6331475 5.11295483,14.4629766 L5.11295483,12.975561 C4.45709802,12.7376133 3.84974443,12.3774368 3.3214708,11.9131644 L2.06587812,12.656963 C1.92248124,12.7418339 1.74089621,12.7135304 1.6285554,12.5887978 C0.899743173,11.7800095 0.342445661,10.8062216 0.0160458158,9.72834122 C-0.0331058139,9.5660634 0.0335009836,9.39038843 0.177004872,9.30540881 L1.43357056,8.56148929 C1.30736022,7.85975988 1.30736022,7.14027037 1.43357056,6.43854095 L0.177034357,5.69462143 C0.0335304687,5.60967205 -0.0330763289,5.43399708 0.0160753009,5.27168902 C0.342475146,4.19380864 0.899743173,3.22002075 1.62858489,2.41123244 C1.7409257,2.28649988 1.92251072,2.25819636 2.0659076,2.34306729 L3.32150029,3.08686584 C3.84978255,2.62260592 4.45713377,2.26243088 5.11298431,2.02446929 L5.11298431,0.537083882 C5.11298189,0.36716933 5.22783353,0.219960808 5.38946592,0.182709765 C6.4201464,-0.0546888366 7.52710479,-0.0669670318 8.60979696,0.182498072 C8.77167005,0.219786286 8.88704517,0.366852452 8.88704517,0.537023399 L8.88704517,2.02443905 C9.54290198,2.26238671 10.1502556,2.62256316 10.6785292,3.08683559 L11.9341219,2.34303704 C12.0775188,2.25816612 12.2591038,2.28646964 12.3714446,2.4112022 C13.1002568,3.2199905 13.6575543,4.1937784 13.9839542,5.27165878 C14.0331058,5.4339366 13.966499,5.60961157 13.8229951,5.69459119 L12.5664294,6.43851071 C12.6926401,7.14025026 12.6926401,7.85974974 12.5664294,8.56148929 Z M9.35880647,7.5 C9.35880647,6.16597107 8.30064589,5.08065119 7,5.08065119 C5.69935411,5.08065119 4.64119353,6.16597107 4.64119353,7.5 C4.64119353,8.83402893 5.69935411,9.91934881 7,9.91934881 C8.30064589,9.91934881 9.35880647,8.83402893 9.35880647,7.5 Z" id="Shape"></path>
                            </g>
                        </g>
                    </g>
                </g>
            </g>
        </g>
    </g>
</svg>