
<svg width="79px" height="12px" viewBox="0 0 79 12" version="1.1" xmlns="http://www.w3.org/2000/svg" xmlns:xlink="http://www.w3.org/1999/xlink">
    <!-- Generator: Sketch 51.3 (57544) - http://www.bohemiancoding.com/sketch -->
    <desc>Created with Sketch.</desc>
    <defs></defs>
    <g id="Symbols" stroke="none" stroke-width="1" fill="none" fill-rule="evenodd" opacity="0.5">
        <g id="Footer" transform="translate(-1170.000000, -29.000000)" fill="#000000" fill-rule="nonzero">
            <g id="Group-18">
                <g id="Group-17" transform="translate(190.000000, 20.000000)">
                    <g id="Group-15" transform="translate(873.000000, 3.000000)">
                        <g id="Group-39" transform="translate(107.000000, 6.000000)">
                            <g id="prostor">
                                <path d="M26.7274852,6.61873092 L31.1112149,6.61873092 L31.1112149,1.69678941 L26.7274852,1.69678941 L26.7274852,6.61873092 Z M24.9721258,6.61873092 L24.9721258,0.1700813 L32.8665742,0.1700813 L32.8665742,6.61873092 L32.8665742,8.14543901 L31.1112149,8.14543901 L26.7274852,8.14543901 L24.9721258,8.14543901 L24.9721258,6.61873092 Z M0,8.14543901 L0,0.1700813 L7.89444834,0.1700813 L7.89444834,8.14543901 L6.13870003,8.14543901 L6.13870003,1.69716544 L1.75535931,1.69716544 L1.75535931,8.14543901 L0,8.14543901 Z M72.6379897,0.1700813 L79,0.1700813 L79,6.61873092 L79,8.14543901 L77.2442515,8.14543901 L72.813837,8.14543901 L72.79633,8.14543901 L72.79633,11.74298 L71.0584775,11.74298 L71.0584775,8.14543901 L71.0584775,6.61873092 L71.0584775,0.1700813 L72.6379897,0.1700813 Z M72.813837,6.61910692 L77.2442515,6.61910692 L77.2442515,1.69716544 L72.813837,1.69716544 L72.813837,6.61910692 Z M16.9801056,0 C19.2622284,0 21.1938239,1.69705263 21.1938239,4.15783536 C21.1938239,6.61824203 19.2622284,8.31567072 16.9801056,8.31567072 C16.1195438,8.31567072 15.2239682,7.97573372 14.6975939,7.46658038 L14.6100594,7.38197213 L14.5038508,7.46658038 L14.5038508,11.7432432 L12.7667765,11.7432432 L12.7667765,0.169968489 L14.3458996,0.169968489 L14.5038508,0.848714337 L14.6100594,0.933698582 L14.6975939,0.848714337 C15.2239682,0.339560942 16.102426,0 16.9801056,0 Z M16.8921821,6.78821053 C18.5596178,6.78821053 19.4380755,5.60031128 19.4380755,4.15783536 C19.4380755,2.71535943 18.5596178,1.52783622 16.8921821,1.52783622 C15.3994264,1.52783622 14.3458996,2.71535943 14.3458996,4.15783536 C14.3458996,5.60031128 15.3994264,6.78821053 16.8921821,6.78821053 Z M41.5386405,6.78821053 C42.5913893,6.78821053 43.3990413,6.10946468 43.6799299,5.43071883 L45.1372827,6.27905713 C44.4525681,7.46658038 43.1181527,8.31567072 41.4503279,8.31567072 C39.2382328,8.31567072 37.2369987,6.61824203 37.2369987,4.15783536 C37.2369987,1.69705263 39.2382328,0 41.4503279,0 C43.1181527,0 44.4346721,0.848714337 45.1193868,2.03623754 L43.662812,2.88532792 C43.3819234,2.20620603 42.5913893,1.52783622 41.5386405,1.52783622 C39.8704267,1.52783622 38.9573442,2.71535943 38.9573442,4.15783536 C38.9573442,5.60031128 39.8704267,6.78821053 41.5386405,6.78821053 Z M48.5269702,1.69701503 L48.5269702,0.169930885 L55.5495748,0.169930885 L55.5495748,1.69701503 L52.9161466,1.69701503 L52.9161466,8.14528859 L51.1607873,8.14528859 L51.1607873,1.69701503 L48.5269702,1.69701503 Z M62.9443367,0 C65.2264594,0 67.2452005,1.69705263 67.2452005,4.15783536 C67.2452005,6.61824203 65.2264594,8.31567072 62.9443367,8.31567072 C60.6622139,8.31567072 58.642695,6.61824203 58.642695,4.15783536 C58.642695,1.69705263 60.6622139,0 62.9443367,0 Z M62.9443367,6.78821053 C64.6117725,6.78821053 65.4898415,5.60031128 65.4898415,4.15783536 C65.4898415,2.71535943 64.6117725,1.52783622 62.9443367,1.52783622 C61.2761229,1.52783622 60.3984434,2.71535943 60.3984434,4.15783536 C60.3984434,5.60031128 61.2761229,6.78821053 62.9443367,6.78821053 Z" id="Shape"></path>
                            </g>
                        </g>
                    </g>
                </g>
            </g>
        </g>
    </g>
</svg>